<svg xmlns="http://www.w3.org/2000/svg" width="1280" height="720" viewBox="0 0 1280 720" role="img" aria-labelledby="title desc">
  <title id="title">SmartCart data engineering architecture</title>
  <desc id="desc">Minimal data platform architecture for receipt ingestion, OCR, streaming, processing and analytics.</desc>
  <rect width="1280" height="720" fill="#f8f6f0"/>
  <rect x="70" y="72" width="1140" height="576" rx="32" fill="#ffffff" stroke="#d8d2c4" stroke-width="2"/>
  <text x="112" y="138" fill="#13213b" font-family="Inter, Arial, sans-serif" font-size="38" font-weight="700">SmartCart data platform</text>
  <text x="112" y="178" fill="#506178" font-family="Inter, Arial, sans-serif" font-size="24">OCR, streaming, Spark processing and analytics layers</text>
  <g font-family="Inter, Arial, sans-serif" font-size="21" font-weight="700" text-anchor="middle">
    <rect x="122" y="270" width="148" height="88" rx="16" fill="#eef3f4" stroke="#d8d2c4"/>
    <text x="196" y="324" fill="#13213b">Receipt</text>
    <rect x="332" y="270" width="148" height="88" rx="16" fill="#e8f3f5" stroke="#2b6f8a"/>
    <text x="406" y="324" fill="#13213b">FastAPI</text>
    <rect x="542" y="270" width="148" height="88" rx="16" fill="#f5f1e6" stroke="#c58b47"/>
    <text x="616" y="324" fill="#13213b">Gemini OCR</text>
    <rect x="752" y="270" width="148" height="88" rx="16" fill="#eef3ee" stroke="#8aa08b"/>
    <text x="826" y="324" fill="#13213b">Kafka</text>
    <rect x="962" y="270" width="148" height="88" rx="16" fill="#f5f1e6" stroke="#c58b47"/>
    <text x="1036" y="324" fill="#13213b">Spark</text>
    <rect x="314" y="468" width="180" height="88" rx="16" fill="#eef3ee" stroke="#8aa08b"/>
    <text x="404" y="522" fill="#13213b">Parquet layers</text>
    <rect x="550" y="468" width="180" height="88" rx="16" fill="#eef3f4" stroke="#d8d2c4"/>
    <text x="640" y="522" fill="#13213b">MongoDB</text>
    <rect x="786" y="468" width="180" height="88" rx="16" fill="#e8f3f5" stroke="#2b6f8a"/>
    <text x="876" y="522" fill="#13213b">Streamlit</text>
  </g>
  <g fill="none" stroke="#2b6f8a" stroke-width="4" stroke-linecap="round" stroke-linejoin="round">
    <path d="M270 314h62"/>
    <path d="M480 314h62"/>
    <path d="M690 314h62"/>
    <path d="M900 314h62"/>
    <path d="M1036 358v54H404v56"/>
    <path d="M1036 412H640v56"/>
    <path d="M1036 412H876v56"/>
  </g>
  <g fill="#2b6f8a">
    <path d="m322 296 22 18-22 18z"/>
    <path d="m532 296 22 18-22 18z"/>
    <path d="m742 296 22 18-22 18z"/>
    <path d="m952 296 22 18-22 18z"/>
  </g>
</svg>
